<?xml version="1.0" encoding="UTF-8" standalone="no"?>
<svg
   xmlns:dc="http://purl.org/dc/elements/1.1/"
   xmlns:cc="http://creativecommons.org/ns#"
   xmlns:rdf="http://www.w3.org/1999/02/22-rdf-syntax-ns#"
   xmlns:svg="http://www.w3.org/2000/svg"
   xmlns="http://www.w3.org/2000/svg"
   xmlns:sodipodi="http://sodipodi.sourceforge.net/DTD/sodipodi-0.dtd"
   xmlns:inkscape="http://www.inkscape.org/namespaces/inkscape"
   version="1.1"
   width="388.20187"
   height="328.4817"
   viewBox="0,0,388.20187,328.4817"
   id="svg126"
   sodipodi:docname="msoe libertarians logo.svg"
   inkscape:version="1.0.2-2 (e86c870879, 2021-01-15)"
   inkscape:export-filename="C:\Users\bilkeyj\OneDrive - Milwaukee School of Engineering\MSOE-Libertarians\Marketing Images\msoe libertarians.png"
   inkscape:export-xdpi="741.88"
   inkscape:export-ydpi="741.88">
  <title
     id="title168">MSOE Libertarians Logo</title>
  <metadata
     id="metadata132">
    <rdf:RDF>
      <cc:Work
         rdf:about="">
        <dc:format>image/svg+xml</dc:format>
        <dc:type
           rdf:resource="http://purl.org/dc/dcmitype/StillImage" />
        <dc:title>MSOE Libertarians Logo</dc:title>
      </cc:Work>
    </rdf:RDF>
  </metadata>
  <defs
     id="defs130" />
  <sodipodi:namedview
     pagecolor="#ffffff"
     bordercolor="#666666"
     borderopacity="1"
     objecttolerance="10"
     gridtolerance="10"
     guidetolerance="10"
     inkscape:pageopacity="0"
     inkscape:pageshadow="2"
     inkscape:window-width="786"
     inkscape:window-height="480"
     id="namedview128"
     showgrid="false"
     inkscape:zoom="1.5130219"
     inkscape:cx="194.10094"
     inkscape:cy="164.24084"
     inkscape:window-x="186"
     inkscape:window-y="229"
     inkscape:window-maximized="0"
     inkscape:current-layer="text86" />
  <g
     transform="translate(-45.89906,-15.78004)"
     id="g124">
    <g
       data-paper-data="{&quot;isPaintingLayer&quot;:true}"
       stroke-linecap="butt"
       stroke-linejoin="miter"
       stroke-miterlimit="10"
       stroke-dasharray="none"
       stroke-dashoffset="0"
       style="mix-blend-mode:normal"
       id="g122">
      <g
         fill="#ffff00"
         fill-rule="evenodd"
         stroke="#000000"
         stroke-width="2"
         id="g76">
        <path
           d="m 240.4761,28.3959 h 1.11313 l 4.79505,2.4108 c 3.1967,1.6072 5.30878,2.66021 6.33625,3.15904 1.02752,0.49879 4.52387,2.11983 10.48903,4.86311 5.96522,2.74337 9.04776,4.1289 9.24761,4.15657 0.19979,0.02771 1.78383,0.67891 4.75214,1.95359 2.96837,1.27469 5.2517,2.21687 6.84999,2.82653 1.59828,0.60963 3.91015,1.44097 6.93561,2.49402 3.02545,1.053 4.93775,1.71805 5.7369,1.99516 0.79917,0.2771 1.79816,0.60963 2.99698,0.99757 1.19877,0.38794 2.74003,0.85902 4.6238,1.41323 1.88382,0.5542 4.28138,1.21924 7.19267,1.99514 2.91129,0.77588 5.7369,1.46865 8.47681,2.07829 2.74005,0.60961 4.50964,0.99756 5.30878,1.16382 0.79917,0.16625 3.33936,0.63733 7.62059,1.41323 4.28125,0.77591 6.96415,1.24699 8.0487,1.41325 1.08458,0.16627 3.73893,0.58193 7.96308,1.24699 4.22417,0.66505 6.36479,0.99757 6.42187,0.99757 0.0571,0 2.11208,0.38795 6.16501,1.16386 4.05292,0.7759 6.09362,1.1777 6.1221,1.2054 l 0.0428,0.04157 -0.25687,12.3867 c -0.17126,8.25766 -0.59939,18.92619 -1.28439,32.00558 -0.68501,13.07926 -1.22729,22.22362 -1.62686,27.43307 -0.3996,5.20959 -0.85627,9.671 -1.37002,13.38423 -0.51375,3.71323 -1.11312,7.23246 -1.79813,10.55769 -0.68501,3.32523 -1.42707,6.67814 -2.22618,10.05873 -0.79917,3.38058 -1.51269,6.34557 -2.14056,8.89494 -0.62791,2.54938 -1.36997,5.29268 -2.22618,8.22992 -0.85626,2.93737 -1.37002,4.71082 -1.54126,5.32036 -0.17126,0.60963 -0.42814,1.38548 -0.77064,2.32757 -0.3425,0.94216 -0.74209,2.10602 -1.19875,3.49155 -0.45665,1.38552 -1.17017,3.38065 -2.14056,5.98538 -0.97041,2.60473 -1.76955,4.68302 -2.39742,6.23486 -0.62792,1.55171 -1.39859,3.40833 -2.312,5.56984 -0.91332,2.16138 -2.08356,4.76618 -3.51071,7.81438 -1.42704,3.04821 -2.28326,4.82166 -2.56867,5.32036 -0.28541,0.49879 -1.32718,2.31383 -3.12531,5.4451 -1.79814,3.13128 -2.88269,4.98789 -3.25365,5.56984 -0.37106,0.58195 -1.25582,2.05064 -2.65429,4.40606 -1.39856,2.35538 -2.31187,3.85174 -2.73991,4.48908 -0.42811,0.63734 -1.08457,1.63494 -1.96937,2.99279 -0.8848,1.35785 -1.59832,2.41086 -2.14056,3.15904 -0.5423,0.74817 -1.17022,1.63493 -1.88377,2.66028 -0.71355,1.02529 -1.39852,1.96746 -2.05494,2.82653 -0.65645,0.85906 -1.1702,1.57956 -1.54126,2.16151 -0.37104,0.58191 -0.91332,1.33009 -1.62684,2.24454 -0.71356,0.91445 -1.39854,1.82888 -2.05494,2.74331 -0.65646,0.91445 -1.36998,1.85663 -2.14056,2.82653 -0.77064,0.96987 -1.42711,1.80121 -1.96939,2.49402 -0.5423,0.69274 -1.69824,2.009 -3.4678,3.94881 -1.76966,1.93971 -3.85327,4.15657 -6.25083,6.6506 -2.39756,2.49389 -4.50971,4.6276 -6.33645,6.40112 -1.82661,1.77339 -3.03962,2.89566 -3.63905,3.36681 -0.5994,0.47108 -1.99796,1.6626 -4.19569,3.57458 -2.19773,1.91198 -3.53921,3.07583 -4.02445,3.49155 -0.48521,0.41566 -1.68399,1.44093 -3.59634,3.07582 -1.91235,1.63489 -3.16821,2.6879 -3.76758,3.15904 -0.59937,0.47108 -1.28435,1.02528 -2.05494,1.66261 -0.77063,0.63733 -1.84094,1.51019 -3.21094,2.61857 -1.36996,1.10842 -2.41173,1.92586 -3.12531,2.45231 -0.71355,0.52649 -1.39853,0.99757 -2.05494,1.41323 -0.65646,0.41564 -1.85524,1.13615 -3.59634,2.16151 -1.74105,1.02529 -2.88275,1.71805 -3.42509,2.07829 -0.54229,0.36023 -1.15593,0.7343 -1.84094,1.12223 -0.68501,0.38797 -1.39852,0.83134 -2.14056,1.33012 -0.74209,0.49876 -1.28437,0.859 -1.62686,1.0807 -0.34252,0.22169 -1.08458,0.60963 -2.22618,1.16384 -1.14167,0.55422 -2.51169,1.19157 -4.11007,1.91205 -1.59828,0.72045 -2.71144,1.19152 -3.33947,1.41321 l -0.94189,0.33253 -1.02749,-0.2494 c -0.68501,-0.16624 -1.42707,-0.44335 -2.22618,-0.83131 -0.79917,-0.38793 -2.14065,-1.05298 -4.02445,-1.99516 -1.88382,-0.94215 -2.96837,-1.52408 -3.25365,-1.74578 -0.28542,-0.22169 -1.01324,-0.70661 -2.18347,-1.45476 -1.17021,-0.74821 -2.05498,-1.30243 -2.65429,-1.66267 -0.59937,-0.36023 -1.76961,-1.05299 -3.51071,-2.07829 -1.74105,-1.02531 -2.93983,-1.74582 -3.59634,-2.16151 -0.65645,-0.41564 -1.34143,-0.88671 -2.05494,-1.41321 -0.71355,-0.52649 -1.52699,-1.14999 -2.44034,-1.87048 -0.91334,-0.72048 -2.12636,-1.70417 -3.63905,-2.95108 -1.51273,-1.24699 -2.82567,-2.32768 -3.93883,-3.24207 -1.11312,-0.91445 -2.74001,-2.29997 -4.88067,-4.15657 -2.14062,-1.85668 -3.51058,-3.02053 -4.10987,-3.49155 -0.59937,-0.47106 -1.91224,-1.57943 -3.93863,-3.3251 -2.02646,-1.74571 -3.15386,-2.7294 -3.38218,-2.95108 -0.22834,-0.22171 -1.24157,-1.20547 -3.03969,-2.95128 -1.79814,-1.74571 -3.054,-2.99266 -3.76758,-3.74084 -0.71355,-0.74817 -2.28335,-2.41078 -4.70943,-4.98785 -2.42607,-2.57707 -3.88172,-4.15659 -4.36694,-4.73857 -0.48521,-0.58191 -1.19873,-1.44093 -2.14056,-2.57705 -0.94187,-1.13614 -1.68393,-2.05057 -2.22618,-2.74331 -0.54229,-0.69279 -1.08458,-1.41329 -1.62688,-2.16151 -0.5423,-0.74815 -1.11314,-1.52401 -1.71251,-2.32757 -0.59937,-0.80359 -1.14166,-1.52409 -1.62686,-2.16151 -0.48522,-0.63733 -0.89907,-1.20538 -1.24156,-1.70414 -0.3425,-0.4988 -0.81344,-1.15001 -1.41283,-1.95361 -0.59937,-0.80361 -1.11312,-1.52412 -1.54124,-2.16151 -0.42812,-0.63733 -0.99896,-1.46867 -1.71251,-2.49402 -0.71355,-1.02531 -1.25584,-1.82891 -1.62688,-2.4108 -0.37104,-0.58193 -0.97042,-1.49636 -1.79813,-2.74331 -0.82771,-1.24697 -1.37,-2.10599 -1.62688,-2.57705 -0.25688,-0.47109 -0.9704,-1.66262 -2.14056,-3.57458 -1.17021,-1.91203 -1.94081,-3.15904 -2.3118,-3.74104 -0.37104,-0.5819 -1.29865,-2.17526 -2.78283,-4.78008 -1.48417,-2.60482 -2.59733,-4.57227 -3.33947,-5.90235 -0.74209,-1.33012 -1.39854,-2.57713 -1.96937,-3.74104 -0.57083,-1.16382 -1.36997,-2.9096 -2.39742,-5.23733 -1.02751,-2.3277 -1.54126,-3.51923 -1.54126,-3.57458 0,-0.0554 -0.51375,-1.33012 -1.54126,-3.82406 -1.02749,-2.49402 -1.82664,-4.46147 -2.39742,-5.90235 -0.57083,-1.44101 -1.36997,-3.63013 -2.39742,-6.56737 -1.02751,-2.93737 -2.05498,-6.06867 -3.0824,-9.39391 -1.02751,-3.32523 -2.16921,-7.37097 -3.42509,-12.13721 -1.25583,-4.76611 -2.14066,-8.31302 -2.65449,-10.64072 -0.51375,-2.32757 -1.22727,-5.70822 -2.14056,-10.14195 -0.91333,-4.43373 -1.45563,-7.34336 -1.62688,-8.72889 -0.17124,-1.38552 -0.54229,-5.62519 -1.11313,-12.71901 -0.57083,-7.09381 -0.94187,-12.44191 -1.11313,-16.04431 -0.17124,-3.60239 -0.37104,-7.42646 -0.59938,-11.47219 -0.22834,-4.04574 -0.5423,-10.66853 -0.94189,-19.86837 -0.39958,-9.19984 -0.59938,-15.7118 -0.59938,-19.53586 v -5.7361 l 0.55657,-0.29094 c 0.37104,-0.19398 1.38427,-0.42953 3.03969,-0.70663 1.65542,-0.2771 3.93875,-0.63734 6.84999,-1.08072 2.91124,-0.44337 7.33519,-1.16388 13.27186,-2.16151 5.93675,-0.99758 10.18946,-1.71809 12.75813,-2.16151 2.5688,-0.44337 5.96529,-1.13614 10.18946,-2.07829 4.22417,-0.94215 7.87752,-1.82891 10.96006,-2.66028 3.08254,-0.83131 5.7369,-1.60717 7.96308,-2.32757 2.22631,-0.72048 3.96737,-1.27469 5.22316,-1.66263 1.25583,-0.38794 2.45461,-0.77589 3.59634,-1.16384 1.14167,-0.38795 3.425,-1.2193 6.84999,-2.49402 3.42503,-1.27467 6.63596,-2.5632 9.63281,-3.86558 2.99685,-1.30239 4.5952,-1.96744 4.79505,-1.99516 0.19979,-0.02771 1.64113,-0.65119 4.32403,-1.87044 2.68297,-1.21926 5.109,-2.32769 7.2781,-3.3253 2.1691,-0.99757 4.30972,-1.99517 6.42187,-2.99279 2.11215,-0.99757 4.73797,-2.29993 7.87745,-3.90709 l 4.70943,-2.4108 h 1.11313 z"
           id="path72" />
        <path
           d="m 236.16505,31.22004 h 1.11313 l 4.79505,2.4108 c 3.1967,1.6072 5.30878,2.66021 6.33625,3.15904 1.02752,0.49879 4.52387,2.11983 10.48903,4.86311 5.96522,2.74337 9.04776,4.1289 9.24761,4.15657 0.19979,0.02771 1.78383,0.67891 4.75214,1.95359 2.96837,1.27469 5.2517,2.21687 6.84999,2.82653 1.59828,0.60963 3.91015,1.44097 6.93561,2.49402 3.02545,1.053 4.93775,1.71805 5.7369,1.99516 0.79917,0.2771 1.79816,0.60963 2.99698,0.99757 1.19877,0.38794 2.74003,0.85902 4.6238,1.41323 1.88382,0.5542 4.28138,1.21924 7.19268,1.99514 2.91129,0.77588 5.7369,1.46865 8.47681,2.07829 2.74005,0.60961 4.50964,0.99756 5.30878,1.16382 0.79917,0.16625 3.33936,0.63733 7.62059,1.41323 4.28125,0.77591 6.96415,1.24699 8.0487,1.41325 1.08458,0.16627 3.73893,0.58193 7.96308,1.24699 4.22417,0.66505 6.36479,0.99757 6.42187,0.99757 0.0571,0 2.11208,0.38795 6.16501,1.16386 4.05292,0.7759 6.09362,1.1777 6.1221,1.2054 l 0.0428,0.04157 -0.25687,12.3867 c -0.17126,8.25766 -0.59939,18.92619 -1.28439,32.00558 -0.68501,13.07926 -1.22729,22.22362 -1.62686,27.43307 -0.3996,5.20959 -0.85627,9.671 -1.37002,13.38423 -0.51375,3.71323 -1.11312,7.23246 -1.79813,10.55769 -0.68501,3.32523 -1.42707,6.67814 -2.22618,10.05873 -0.79917,3.38058 -1.51269,6.34557 -2.14056,8.89494 -0.62791,2.54938 -1.36997,5.29268 -2.22618,8.22992 -0.85626,2.93737 -1.37002,4.71082 -1.54126,5.32036 -0.17126,0.60963 -0.42814,1.38548 -0.77064,2.32757 -0.3425,0.94216 -0.74209,2.10602 -1.19875,3.49155 -0.45665,1.38552 -1.17017,3.38065 -2.14056,5.98538 -0.97041,2.60473 -1.76955,4.68302 -2.39742,6.23486 -0.62792,1.55171 -1.39859,3.40833 -2.312,5.56984 -0.91332,2.16138 -2.08356,4.76618 -3.51071,7.81438 -1.42704,3.04821 -2.28326,4.82166 -2.56867,5.32036 -0.28541,0.49879 -1.32718,2.31383 -3.12532,5.4451 -1.79814,3.13128 -2.88268,4.98789 -3.25365,5.56984 -0.37106,0.58195 -1.25582,2.05064 -2.65429,4.40606 -1.39856,2.35538 -2.31187,3.85174 -2.73992,4.48908 -0.42811,0.63734 -1.08457,1.63494 -1.96937,2.99279 -0.8848,1.35785 -1.59832,2.41086 -2.14056,3.15904 -0.5423,0.74817 -1.17022,1.63493 -1.88377,2.66028 -0.71355,1.02529 -1.39852,1.96746 -2.05494,2.82653 -0.65645,0.85906 -1.1702,1.57956 -1.54126,2.16151 -0.37104,0.58191 -0.91332,1.33009 -1.62684,2.24454 -0.71356,0.91445 -1.39854,1.82888 -2.05494,2.74331 -0.65646,0.91445 -1.36998,1.85663 -2.14056,2.82653 -0.77064,0.96987 -1.42711,1.80121 -1.96939,2.49402 -0.5423,0.69274 -1.69824,2.009 -3.4678,3.94881 -1.76966,1.93971 -3.85327,4.15657 -6.25083,6.6506 -2.39756,2.49389 -4.50971,4.6276 -6.33645,6.40112 -1.82661,1.77339 -3.03963,2.89566 -3.63905,3.36681 -0.5994,0.47108 -1.99796,1.6626 -4.19569,3.57458 -2.19773,1.91198 -3.53922,3.07583 -4.02445,3.49155 -0.48521,0.41566 -1.68399,1.44093 -3.59634,3.07582 -1.91235,1.63489 -3.16821,2.6879 -3.76758,3.15904 -0.59937,0.47108 -1.28435,1.02528 -2.05494,1.66261 -0.77063,0.63733 -1.84094,1.51019 -3.21094,2.61857 -1.36996,1.10842 -2.41173,1.92586 -3.12531,2.45231 -0.71355,0.52649 -1.39852,0.99757 -2.05494,1.41323 -0.65646,0.41564 -1.85524,1.13615 -3.59634,2.16151 -1.74105,1.02529 -2.88275,1.71805 -3.42509,2.07829 -0.54229,0.36023 -1.15593,0.7343 -1.84094,1.12223 -0.68501,0.38797 -1.39852,0.83134 -2.14056,1.33012 -0.74209,0.49876 -1.28437,0.859 -1.62686,1.0807 -0.34252,0.22169 -1.08458,0.60963 -2.22618,1.16384 -1.14167,0.55422 -2.51169,1.19157 -4.11007,1.91205 -1.59828,0.72045 -2.71144,1.19152 -3.33947,1.41321 l -0.94189,0.33253 -1.02749,-0.2494 c -0.68501,-0.16624 -1.42707,-0.44335 -2.22618,-0.83131 -0.79917,-0.38793 -2.14065,-1.05298 -4.02445,-1.99516 -1.88382,-0.94215 -2.96837,-1.52408 -3.25365,-1.74578 -0.28542,-0.22169 -1.01325,-0.70661 -2.18347,-1.45476 -1.17021,-0.74821 -2.05497,-1.30243 -2.65429,-1.66267 -0.59937,-0.36023 -1.76961,-1.05299 -3.51072,-2.07829 -1.74105,-1.02531 -2.93983,-1.74582 -3.59634,-2.16151 -0.65645,-0.41564 -1.34143,-0.88671 -2.05494,-1.41321 -0.71355,-0.52649 -1.52699,-1.14999 -2.44034,-1.87048 -0.91334,-0.72048 -2.12636,-1.70417 -3.63905,-2.95108 -1.51273,-1.24699 -2.82567,-2.32768 -3.93883,-3.24207 -1.11312,-0.91445 -2.74001,-2.29997 -4.88067,-4.15657 -2.14062,-1.85668 -3.51058,-3.02053 -4.10987,-3.49155 -0.59937,-0.47106 -1.91224,-1.57943 -3.93863,-3.3251 -2.02646,-1.74571 -3.15386,-2.7294 -3.38218,-2.95108 -0.22834,-0.22171 -1.24157,-1.20547 -3.03969,-2.95128 -1.79814,-1.74571 -3.054,-2.99266 -3.76758,-3.74084 -0.71355,-0.74817 -2.28335,-2.41078 -4.70943,-4.98785 -2.42607,-2.57707 -3.88172,-4.15659 -4.36694,-4.73857 -0.48521,-0.58191 -1.19873,-1.44093 -2.14056,-2.57705 -0.94187,-1.13614 -1.68393,-2.05057 -2.22618,-2.74331 -0.54229,-0.69279 -1.08458,-1.41329 -1.62688,-2.16151 -0.5423,-0.74815 -1.11314,-1.52401 -1.71251,-2.32757 -0.59937,-0.80359 -1.14166,-1.52409 -1.62686,-2.16151 -0.48522,-0.63733 -0.89907,-1.20538 -1.24156,-1.70414 -0.3425,-0.4988 -0.81344,-1.15001 -1.41283,-1.95361 -0.59937,-0.80361 -1.11312,-1.52412 -1.54124,-2.16151 -0.42812,-0.63733 -0.99896,-1.46867 -1.71251,-2.49402 -0.71355,-1.02531 -1.25584,-1.82891 -1.62688,-2.4108 -0.37104,-0.58193 -0.97042,-1.49636 -1.79813,-2.74331 -0.82771,-1.24697 -1.37,-2.10599 -1.62688,-2.57705 -0.25688,-0.47109 -0.9704,-1.66262 -2.14056,-3.57458 -1.17021,-1.91203 -1.94081,-3.15904 -2.3118,-3.74104 -0.37104,-0.5819 -1.29865,-2.17526 -2.78283,-4.78008 -1.48417,-2.60482 -2.59733,-4.57227 -3.33947,-5.90235 -0.74209,-1.33012 -1.39854,-2.57713 -1.96937,-3.74104 -0.57083,-1.16382 -1.36997,-2.9096 -2.39742,-5.23733 -1.02749,-2.3277 -1.54124,-3.51923 -1.54124,-3.57458 0,-0.0554 -0.51375,-1.33012 -1.54126,-3.82406 -1.02749,-2.49402 -1.82664,-4.46147 -2.39742,-5.90235 -0.57083,-1.44101 -1.36997,-3.63013 -2.39742,-6.56737 -1.02751,-2.93737 -2.05498,-6.06867 -3.0824,-9.39391 -1.02751,-3.32523 -2.16921,-7.37097 -3.42509,-12.13721 -1.25583,-4.76611 -2.14066,-8.31302 -2.65449,-10.64072 -0.51375,-2.32757 -1.22727,-5.70822 -2.14056,-10.14195 -0.91333,-4.43373 -1.45563,-7.34336 -1.62688,-8.72889 -0.17124,-1.38552 -0.54229,-5.62519 -1.11313,-12.71901 -0.57083,-7.09381 -0.94187,-12.44191 -1.11313,-16.04431 -0.17124,-3.60239 -0.37104,-7.42646 -0.59938,-11.47219 -0.22834,-4.04574 -0.5423,-10.66853 -0.94189,-19.86837 -0.39958,-9.19984 -0.59938,-15.7118 -0.59938,-19.53586 v -5.7361 l 0.55657,-0.29094 c 0.37104,-0.19398 1.38427,-0.42953 3.03969,-0.70663 1.65542,-0.2771 3.93875,-0.63734 6.84999,-1.08072 2.91124,-0.44337 7.33519,-1.16388 13.27186,-2.16151 5.93675,-0.99758 10.18946,-1.71809 12.75813,-2.16151 2.5688,-0.44337 5.96529,-1.13614 10.18946,-2.07829 4.22417,-0.94215 7.87752,-1.82891 10.96006,-2.66028 3.08254,-0.83131 5.7369,-1.60717 7.96308,-2.32757 2.22631,-0.72048 3.96737,-1.27469 5.22316,-1.66263 1.25583,-0.38794 2.45461,-0.77589 3.59634,-1.16384 1.14167,-0.38794 3.425,-1.21928 6.84999,-2.49402 3.42503,-1.27467 6.63596,-2.5632 9.63281,-3.86558 2.99685,-1.30239 4.5952,-1.96744 4.79505,-1.99516 0.19979,-0.02771 1.64113,-0.65119 4.32403,-1.87044 2.68297,-1.21926 5.109,-2.32769 7.2781,-3.3253 2.1691,-0.99758 4.30972,-1.99518 6.42187,-2.99279 2.11215,-0.99757 4.73797,-2.29993 7.87745,-3.90709 l 4.70943,-2.4108 h 1.11313 z"
           id="path74" />
      </g>
      <path
         d="m 240.0929,16.7802 h 1.20141 l 5.17526,2.6022 c 3.45017,1.7348 5.72978,2.87137 6.83881,3.40972 1.10899,0.53838 4.88263,2.28814 11.32091,5.24931 6.43837,2.96106 9.76534,4.45655 9.98089,4.48649 0.21565,0.02991 1.9253,0.73278 5.12896,2.10862 3.20375,1.37581 5.6681,2.39277 7.39306,3.05087 1.72509,0.65802 4.22031,1.55536 7.48567,2.69201 3.26536,1.1366 5.32934,1.85444 6.19195,2.15353 0.86257,0.29911 1.9408,0.65804 3.23469,1.07679 1.29382,0.41874 2.9573,0.92722 4.99044,1.52543 2.03311,0.59823 4.62074,1.31607 7.76289,2.15353 3.14215,0.83749 6.19188,1.58527 9.14921,2.24334 2.95733,0.65802 4.86723,1.07677 5.72971,1.25623 0.86254,0.17947 3.60419,0.68795 8.22493,1.52543 4.62074,0.83749 7.51647,1.34597 8.68717,1.52543 1.17058,0.17947 4.03544,0.62812 8.59457,1.34597 4.55921,0.71784 6.86961,1.07677 6.93122,1.07677 0.0616,0 2.2796,0.41874 6.65399,1.25623 4.37439,0.83749 6.57695,1.27119 6.60769,1.3011 l 0.0462,0.04487 -0.27726,13.36986 c -0.18484,8.91324 -0.64692,20.42867 -1.38624,34.54631 -0.73932,14.11764 -1.32461,23.98782 -1.75588,29.61055 -0.43128,5.62313 -0.92416,10.43867 -1.47865,14.44662 -0.55452,4.00795 -1.20143,7.80647 -1.94075,11.39555 -0.73932,3.58922 -1.54026,7.20837 -2.40281,10.85747 -0.86254,3.64909 -1.63268,6.84952 -2.31041,9.60128 -0.67773,2.75176 -1.47866,5.71288 -2.40281,8.88337 -0.92416,3.17049 -1.47866,5.08472 -1.66349,5.74268 -0.18484,0.65802 -0.46208,1.49548 -0.83171,2.51239 -0.36967,1.01694 -0.80096,2.2732 -1.29386,3.76878 -0.49287,1.49556 -1.26301,3.64909 -2.31041,6.46059 -1.04739,2.81163 -1.90993,5.05491 -2.58763,6.72983 -0.67771,1.67492 -1.50945,3.6789 -2.49522,6.01192 -0.98577,2.33303 -2.24881,5.14459 -3.78914,8.4347 -1.54032,3.29011 -2.46447,5.20433 -2.77245,5.74268 -0.30807,0.53839 -1.43247,2.49752 -3.3732,5.8774 -1.94073,3.37988 -3.1113,5.38385 -3.51171,6.01192 -0.40049,0.62812 -1.35544,2.21337 -2.86486,4.75573 -1.50941,2.54236 -2.49517,4.15755 -2.95726,4.84554 -0.46209,0.68793 -1.17062,1.7647 -2.12559,3.2303 -0.95497,1.4656 -1.7251,2.60217 -2.31041,3.40972 -0.58531,0.80756 -1.26303,1.76471 -2.03318,2.87144 -0.77013,1.10669 -1.50947,2.12365 -2.218,3.05087 -0.70853,0.92722 -1.26303,1.70488 -1.66349,2.33296 -0.40045,0.62812 -0.98574,1.43571 -1.75588,2.42277 -0.77015,0.98703 -1.50948,1.97405 -2.218,2.96106 -0.70849,0.98704 -1.47862,2.004 -2.31041,3.05087 -0.83175,1.04687 -1.54028,1.94421 -2.12559,2.69201 -0.58529,0.74777 -1.8329,2.16849 -3.74283,4.26216 -1.9099,2.09379 -4.1587,4.48662 -6.7464,7.1785 -2.5877,2.69188 -4.8673,4.99497 -6.83881,6.90926 -1.97164,1.91429 -3.28086,3.12565 -3.92765,3.63406 -0.64694,0.50849 -2.15641,1.79462 -4.5284,3.85839 -2.37201,2.06385 -3.81981,3.32004 -4.34339,3.76858 -0.52369,0.44868 -1.81747,1.55539 -3.88135,3.32011 -2.06398,1.76474 -3.41944,2.90131 -4.06636,3.40972 -0.64691,0.50849 -1.38624,1.1067 -2.218,1.79464 -0.83174,0.68796 -1.98694,1.63014 -3.46561,2.82653 -1.47866,1.19641 -2.60307,2.07878 -3.3732,2.64711 -0.77013,0.5683 -1.50947,1.07677 -2.218,1.52541 -0.70853,0.44868 -2.00238,1.22634 -3.88155,2.33296 -1.87917,1.10669 -3.11141,1.85447 -3.69673,2.24334 -0.58531,0.38885 -1.24762,0.79263 -1.98694,1.21135 -0.73933,0.41876 -1.50947,0.89733 -2.31041,1.43572 -0.80094,0.53839 -1.38624,0.92722 -1.7559,1.1665 -0.36966,0.23928 -1.1706,0.65803 -2.40281,1.25625 -1.2322,0.59819 -2.71087,1.28609 -4.43599,2.06372 -1.72509,0.77765 -2.92646,1.28612 -3.60412,1.52541 l -1.01657,0.35892 -1.109,-0.2692 c -0.73932,-0.17947 -1.54026,-0.47856 -2.40281,-0.89728 -0.86254,-0.41876 -2.31041,-1.1366 -4.34359,-2.15353 -2.03311,-1.01694 -3.20368,-1.64506 -3.51171,-1.88435 -0.30805,-0.23928 -1.09362,-0.7627 -2.35671,-1.57028 -1.26301,-0.80759 -2.21796,-1.4058 -2.86486,-1.79464 -0.64691,-0.38882 -1.90996,-1.1366 -3.78914,-2.24334 -1.87917,-1.1067 -3.17302,-1.88436 -3.88155,-2.33296 -0.70853,-0.44864 -1.44786,-0.95711 -2.218,-1.52541 -0.77012,-0.56829 -1.64803,-1.24129 -2.63373,-2.01901 -0.98577,-0.77768 -2.29498,-1.83948 -3.92765,-3.18539 -1.63261,-1.34601 -3.04967,-2.51252 -4.25118,-3.49954 -1.2014,-0.98703 -2.95729,-2.48253 -5.26767,-4.48649 -2.31038,-2.00396 -3.78904,-3.26022 -4.43599,-3.76878 -0.64691,-0.50848 -2.06397,-1.70493 -4.25118,-3.58935 -2.18721,-1.88442 -3.40402,-2.94622 -3.65042,-3.18539 -0.24645,-0.23928 -1.34005,-1.30107 -3.28079,-3.18539 -1.94075,-1.88432 -3.2962,-3.23026 -4.06636,-4.03782 -0.77013,-0.80759 -2.46442,-2.6022 -5.08285,-5.38383 -2.61843,-2.78163 -4.18951,-4.48649 -4.71322,-5.11459 -0.52369,-0.62812 -1.29382,-1.55533 -2.31041,-2.78163 -1.01657,-1.22634 -1.81751,-2.21335 -2.40281,-2.96106 -0.58529,-0.74776 -1.17059,-1.52541 -1.7559,-2.33296 -0.58529,-0.80756 -1.20139,-1.64503 -1.8483,-2.51239 -0.64691,-0.86739 -1.23221,-1.64504 -1.7559,-2.33296 -0.52369,-0.68796 -0.97037,-1.30113 -1.34004,-1.8395 -0.36966,-0.53839 -0.87795,-1.24126 -1.52486,-2.10862 -0.64691,-0.86739 -1.20141,-1.64504 -1.66349,-2.33296 -0.46208,-0.68793 -1.07819,-1.58527 -1.84832,-2.69201 -0.77013,-1.10669 -1.35543,-1.97409 -1.7559,-2.6022 -0.40046,-0.62812 -1.04737,-1.61514 -1.94073,-2.96106 -0.89335,-1.34601 -1.47864,-2.27322 -1.7559,-2.78163 -0.27724,-0.50846 -1.04737,-1.7946 -2.31041,-3.85839 -1.26302,-2.06385 -2.09476,-3.40979 -2.49522,-4.03782 -0.40046,-0.62812 -1.40165,-2.34795 -3.00357,-5.15949 -1.60188,-2.81163 -2.80325,-4.93529 -3.60412,-6.37098 -0.80094,-1.43569 -1.50947,-2.78163 -2.12559,-4.03782 -0.61611,-1.25623 -1.47865,-3.14059 -2.58763,-5.65307 -1.10899,-2.51239 -1.66349,-3.79852 -1.66349,-3.85839 0,-0.0599 -0.5545,-1.43575 -1.66349,-4.12763 -1.10899,-2.69189 -1.97154,-4.81555 -2.58763,-6.37098 -0.61611,-1.55544 -1.47865,-3.9184 -2.58763,-7.08889 -1.10899,-3.17049 -2.21796,-6.55034 -3.3269,-10.13956 -1.10899,-3.58922 -2.34123,-7.95616 -3.69673,-13.10081 -1.35545,-5.14452 -2.31041,-8.97305 -2.86486,-11.48557 -0.55449,-2.51239 -1.32462,-6.16141 -2.31041,-10.94708 -0.98577,-4.78554 -1.57107,-7.92609 -1.7559,-9.42165 -0.18483,-1.49556 -0.5853,-6.07187 -1.20141,-13.72891 -0.61611,-7.65704 -1.01658,-13.42973 -1.20141,-17.31806 -0.18483,-3.88833 -0.40047,-8.0159 -0.64692,-12.3827 -0.24644,-4.36694 -0.58529,-11.51544 -1.01657,-21.4455 -0.43127,-9.93019 -0.6469,-16.95894 -0.6469,-21.08624 v -6.19155 l 0.60069,-0.31405 c 0.40046,-0.20938 1.49406,-0.46362 3.28079,-0.76272 1.78673,-0.2991 4.25115,-0.68793 7.39326,-1.16648 3.14215,-0.47857 7.91697,-1.25622 14.32447,-2.33296 6.4075,-1.07677 10.99751,-1.85442 13.77003,-2.33296 2.77251,-0.47858 6.43837,-1.22636 10.99758,-2.24334 4.55921,-1.01696 8.50229,-1.9741 11.82925,-2.87144 3.32696,-0.89732 6.19182,-1.73479 8.59457,-2.51239 2.40275,-0.77768 4.28191,-1.37589 5.6375,-1.79464 1.35545,-0.41874 2.6493,-0.83749 3.88155,-1.25623 1.23222,-0.41876 3.69664,-1.3161 7.39326,-2.69201 3.6966,-1.37581 7.16214,-2.76666 10.39663,-4.17254 3.23449,-1.40575 4.95958,-2.12359 5.17526,-2.15353 0.21565,-0.02991 1.77128,-0.70291 4.66692,-2.01901 2.89572,-1.31606 5.51416,-2.51244 7.8553,-3.58915 2.34127,-1.07678 4.65168,-2.15354 6.93122,-3.2303 2.27954,-1.07678 5.11366,-2.48253 8.50236,-4.21725 l 5.08285,-2.6022 h 1.20141 v 0 z"
         fill="#e5c601"
         fill-rule="evenodd"
         stroke="#e5c601"
         stroke-width="2"
         id="path78" />
      <path
         d="m 240.59985,29.74309 h 1.11313 l 4.79505,2.4108 c 3.1967,1.6072 5.30878,2.66021 6.33625,3.15904 1.02752,0.49879 4.52387,2.11983 10.48903,4.86311 5.96522,2.74337 9.04776,4.1289 9.24761,4.15657 0.19979,0.02771 1.78383,0.67891 4.75214,1.95359 2.96837,1.27469 5.2517,2.21687 6.84999,2.82653 1.59828,0.60963 3.91015,1.44097 6.93561,2.49402 3.02545,1.053 4.93775,1.71805 5.7369,1.99516 0.79917,0.2771 1.79816,0.60963 2.99698,0.99757 1.19877,0.38794 2.74003,0.85902 4.6238,1.41323 1.88382,0.5542 4.28138,1.21924 7.19267,1.99514 2.91129,0.77588 5.7369,1.46865 8.47681,2.07829 2.74005,0.60961 4.50964,0.99756 5.30878,1.16382 0.79917,0.16625 3.33936,0.63733 7.62059,1.41323 4.28125,0.77591 6.96415,1.24699 8.0487,1.41325 1.08458,0.16627 3.73893,0.58193 7.96308,1.24699 4.22417,0.66505 6.36479,0.99757 6.42187,0.99757 0.0571,0 2.11208,0.38795 6.16501,1.16386 4.05292,0.7759 6.09362,1.1777 6.1221,1.2054 l 0.0428,0.04157 -0.25687,12.3867 c -0.17126,8.25766 -0.59939,18.92619 -1.28439,32.00558 -0.68501,13.07926 -1.22729,22.22362 -1.62686,27.43307 -0.3996,5.20959 -0.85627,9.671 -1.37002,13.38423 -0.51375,3.71323 -1.11312,7.23246 -1.79813,10.55769 -0.68501,3.32523 -1.42707,6.67814 -2.22618,10.05873 -0.79917,3.38058 -1.51269,6.34557 -2.14056,8.89494 -0.62791,2.54938 -1.36997,5.29268 -2.22618,8.22992 -0.85626,2.93737 -1.37002,4.71082 -1.54126,5.32036 -0.17126,0.60963 -0.42814,1.38548 -0.77064,2.32757 -0.3425,0.94216 -0.74209,2.10602 -1.19875,3.49155 -0.45665,1.38552 -1.17017,3.38065 -2.14056,5.98538 -0.97041,2.60473 -1.76955,4.68302 -2.39742,6.23486 -0.62792,1.55171 -1.39859,3.40833 -2.312,5.56984 -0.91332,2.16138 -2.08356,4.76618 -3.51071,7.81438 -1.42704,3.04821 -2.28326,4.82166 -2.56867,5.32036 -0.28541,0.49879 -1.32718,2.31383 -3.12531,5.4451 -1.79814,3.13128 -2.88269,4.98789 -3.25365,5.56984 -0.37106,0.58195 -1.25582,2.05064 -2.65429,4.40606 -1.39856,2.35538 -2.31187,3.85174 -2.73991,4.48908 -0.42811,0.63734 -1.08457,1.63494 -1.96937,2.99279 -0.8848,1.35785 -1.59832,2.41086 -2.14056,3.15904 -0.5423,0.74817 -1.17022,1.63493 -1.88377,2.66028 -0.71355,1.02529 -1.39852,1.96746 -2.05494,2.82653 -0.65645,0.85906 -1.1702,1.57956 -1.54126,2.16151 -0.37104,0.58191 -0.91333,1.33009 -1.62685,2.24454 -0.71356,0.91445 -1.39854,1.82888 -2.05494,2.74331 -0.65646,0.91445 -1.36998,1.85663 -2.14056,2.82653 -0.77064,0.96987 -1.42711,1.80121 -1.96939,2.49402 -0.5423,0.69274 -1.69824,2.009 -3.4678,3.94881 -1.76966,1.93971 -3.85327,4.15657 -6.25083,6.6506 -2.39756,2.49389 -4.50971,4.6276 -6.33645,6.40112 -1.82661,1.77339 -3.03963,2.89566 -3.63905,3.36681 -0.5994,0.47108 -1.99796,1.6626 -4.19569,3.57458 -2.19773,1.91198 -3.53922,3.07583 -4.02445,3.49155 -0.48521,0.41566 -1.68399,1.44093 -3.59634,3.07582 -1.91235,1.63489 -3.16821,2.6879 -3.76758,3.15904 -0.59937,0.47108 -1.28435,1.02528 -2.05494,1.66261 -0.77063,0.63733 -1.84094,1.51019 -3.21094,2.61857 -1.36996,1.10842 -2.41173,1.92586 -3.12531,2.45231 -0.71355,0.52649 -1.39852,0.99757 -2.05494,1.41323 -0.65646,0.41564 -1.85524,1.13615 -3.59634,2.16151 -1.74105,1.02529 -2.88275,1.71805 -3.42509,2.07829 -0.54229,0.36023 -1.15593,0.7343 -1.84094,1.12223 -0.68501,0.38797 -1.39852,0.83134 -2.14056,1.33012 -0.74209,0.49876 -1.28437,0.859 -1.62686,1.0807 -0.34252,0.22169 -1.08458,0.60963 -2.22618,1.16384 -1.14167,0.55422 -2.51169,1.19157 -4.11007,1.91205 -1.59828,0.72045 -2.71144,1.19152 -3.33947,1.41321 l -0.94189,0.33253 -1.02749,-0.2494 c -0.68501,-0.16624 -1.42707,-0.44335 -2.22618,-0.83131 -0.79917,-0.38793 -2.14065,-1.05298 -4.02445,-1.99516 -1.88382,-0.94215 -2.96837,-1.52408 -3.25365,-1.74578 -0.28542,-0.22169 -1.01324,-0.70661 -2.18347,-1.45476 -1.17021,-0.74821 -2.05498,-1.30243 -2.65429,-1.66267 -0.59937,-0.36023 -1.76961,-1.05299 -3.51071,-2.07829 -1.74105,-1.02531 -2.93983,-1.74582 -3.59634,-2.16151 -0.65645,-0.41564 -1.34143,-0.88671 -2.05494,-1.41321 -0.71355,-0.52649 -1.52699,-1.14999 -2.44034,-1.87048 -0.91334,-0.72048 -2.12636,-1.70417 -3.63905,-2.95108 -1.51273,-1.24699 -2.82567,-2.32768 -3.93883,-3.24207 -1.11312,-0.91445 -2.74001,-2.29997 -4.88067,-4.15657 -2.14062,-1.85668 -3.51058,-3.02053 -4.10987,-3.49155 -0.59937,-0.47106 -1.91224,-1.57943 -3.93863,-3.3251 -2.02646,-1.74571 -3.15386,-2.7294 -3.38218,-2.95108 -0.22834,-0.22171 -1.24157,-1.20547 -3.03969,-2.95128 -1.79814,-1.74571 -3.054,-2.99266 -3.76758,-3.74084 -0.71355,-0.74817 -2.28335,-2.41078 -4.70943,-4.98785 -2.42607,-2.57707 -3.88172,-4.15659 -4.36694,-4.73857 -0.48521,-0.58191 -1.19873,-1.44093 -2.14056,-2.57705 -0.94187,-1.13614 -1.68393,-2.05057 -2.22618,-2.74331 -0.54229,-0.69279 -1.08458,-1.41329 -1.62688,-2.16151 -0.5423,-0.74815 -1.11314,-1.52401 -1.71251,-2.32757 -0.59937,-0.80359 -1.14166,-1.52409 -1.62686,-2.16151 -0.48522,-0.63733 -0.89907,-1.20538 -1.24156,-1.70414 -0.3425,-0.4988 -0.81344,-1.15001 -1.41283,-1.95361 -0.59937,-0.80361 -1.11312,-1.52412 -1.54124,-2.16151 -0.42812,-0.63733 -0.99896,-1.46867 -1.71251,-2.49402 -0.71355,-1.02531 -1.25584,-1.82891 -1.62688,-2.4108 -0.37104,-0.58193 -0.97042,-1.49636 -1.79813,-2.74331 -0.82771,-1.24697 -1.37,-2.10599 -1.62688,-2.57705 -0.25688,-0.47109 -0.9704,-1.66262 -2.14056,-3.57458 -1.17021,-1.91203 -1.94081,-3.15904 -2.3118,-3.74104 -0.37104,-0.5819 -1.29865,-2.17526 -2.78283,-4.78008 -1.48417,-2.60482 -2.59733,-4.57227 -3.33947,-5.90235 -0.74209,-1.33012 -1.39854,-2.57713 -1.96937,-3.74104 -0.57083,-1.16382 -1.36997,-2.9096 -2.39742,-5.23733 -1.02751,-2.3277 -1.54126,-3.51923 -1.54126,-3.57458 0,-0.0554 -0.51375,-1.33012 -1.54126,-3.82406 -1.02749,-2.49402 -1.82664,-4.46147 -2.39742,-5.90235 -0.57083,-1.44101 -1.36997,-3.63013 -2.39742,-6.56737 -1.02751,-2.93737 -2.05498,-6.06867 -3.0824,-9.39391 -1.02751,-3.32523 -2.16921,-7.37097 -3.42509,-12.13721 -1.25583,-4.76611 -2.14066,-8.31302 -2.65449,-10.64072 -0.51375,-2.32757 -1.22727,-5.70822 -2.14056,-10.14195 -0.91333,-4.43373 -1.45563,-7.34336 -1.62688,-8.72889 -0.17124,-1.38552 -0.54229,-5.62519 -1.11313,-12.71901 -0.57083,-7.09381 -0.94187,-12.44191 -1.11313,-16.04431 -0.17124,-3.60239 -0.37104,-7.42646 -0.59938,-11.47219 -0.22834,-4.04574 -0.5423,-10.66853 -0.94189,-19.86837 -0.39958,-9.19984 -0.59938,-15.7118 -0.59938,-19.53586 v -5.7361 l 0.55657,-0.29094 c 0.37104,-0.19398 1.38427,-0.42953 3.03969,-0.70663 1.65542,-0.2771 3.93875,-0.63734 6.84999,-1.08072 2.91124,-0.44337 7.33519,-1.16388 13.27186,-2.16151 5.93675,-0.99758 10.18946,-1.71809 12.75813,-2.16151 2.5688,-0.44337 5.96529,-1.13614 10.18946,-2.07829 4.22417,-0.94215 7.87752,-1.82891 10.96006,-2.66028 3.08254,-0.83131 5.7369,-1.60717 7.96308,-2.32757 2.22631,-0.72048 3.96737,-1.27469 5.22316,-1.66263 1.25583,-0.38794 2.45461,-0.77589 3.59634,-1.16384 1.14166,-0.38794 3.42499,-1.21928 6.84999,-2.49402 3.42503,-1.27467 6.63596,-2.5632 9.63281,-3.86558 2.99685,-1.30239 4.5952,-1.96744 4.79505,-1.99516 0.19979,-0.02771 1.64113,-0.65119 4.32403,-1.87044 2.68297,-1.21926 5.109,-2.32769 7.2781,-3.3253 2.1691,-0.99758 4.30972,-1.99518 6.42187,-2.99279 2.11215,-0.99757 4.73797,-2.29993 7.87745,-3.90709 l 4.70943,-2.4108 h 1.11313 z"
         fill="#ffffff"
         fill-rule="evenodd"
         stroke="#ffffff"
         stroke-width="2"
         id="path80" />
      <path
         d="m 240.22263,38.61269 h 1.03236 l 4.44697,2.26929 c 2.96465,1.51286 4.92345,2.50407 5.87641,2.97363 0.95294,0.46953 4.19555,1.9955 9.72781,4.5779 5.53239,2.58237 8.39119,3.8866 8.5764,3.91268 0.1853,0.02608 1.65438,0.63908 4.40725,1.83898 2.75295,1.19991 4.87056,2.0868 6.35282,2.66068 1.48239,0.57388 3.62648,1.35639 6.43225,2.34753 2.80591,0.99124 4.57943,1.61728 5.32056,1.87812 0.74117,0.26087 1.66765,0.5739 2.77943,0.93907 1.11177,0.36519 2.54121,0.80863 4.2883,1.33032 1.74709,0.52169 3.97061,1.14773 6.67056,1.87812 2.7,0.73036 5.32056,1.38248 7.86169,1.95636 2.54113,0.57386 4.18232,0.93904 4.92358,1.09555 0.74118,0.1565 3.09703,0.59994 7.06753,1.33032 3.97056,0.7304 6.4588,1.17385 7.46471,1.33034 1.00587,0.15652 3.46763,0.5478 7.38527,1.17386 3.9176,0.62603 5.90288,0.93905 5.95584,0.93905 0.0529,0 1.95878,0.3652 5.71754,1.09559 3.75887,0.73039 5.65147,1.10862 5.67782,1.13469 l 0.0397,0.03912 -0.23823,11.66 c -0.15883,7.77334 -0.55589,17.81583 -1.19119,30.12748 -0.63531,12.31205 -1.13824,20.92019 -1.50881,25.82441 -0.3706,4.90396 -0.79414,9.10364 -1.2706,12.59906 -0.47645,3.49541 -1.03233,6.8082 -1.66764,9.93838 -0.63528,3.13017 -1.32352,6.28642 -2.06472,9.46875 -0.74118,3.18233 -1.40294,5.97334 -1.98528,8.37302 -0.58235,2.39982 -1.27059,4.98219 -2.06472,7.74712 -0.79413,2.76506 -1.2706,4.43453 -1.42941,5.00841 -0.15883,0.57386 -0.39706,1.30421 -0.7147,2.19105 -0.31765,0.88688 -0.68824,1.98247 -1.11177,3.28678 -0.42351,1.30421 -1.08526,3.18232 -1.98526,5.63431 -0.9,2.45199 -1.64119,4.4084 -2.22359,5.86922 -0.58236,1.4607 -1.29708,3.20841 -2.14415,5.24312 -0.84704,2.03458 -1.93232,4.48656 -3.25584,7.35594 -1.32351,2.86938 -2.11759,4.53885 -2.38226,5.00841 -0.2647,0.46953 -1.2309,2.17812 -2.89859,5.12576 -1.66761,2.94762 -2.67345,4.69532 -3.01754,5.24312 -0.34413,0.54781 -1.16469,1.93034 -2.46169,4.14759 -1.29707,2.21727 -2.14411,3.62581 -2.54113,4.22563 -0.39704,0.59996 -1.00586,1.53901 -1.82645,2.81715 -0.82058,1.27817 -1.48234,2.26938 -1.98528,2.97363 -0.50294,0.70429 -1.08529,1.53902 -1.74703,2.5042 -0.66176,0.96513 -1.29706,1.85202 -1.90589,2.66068 -0.60882,0.80865 -1.08529,1.48685 -1.42941,2.03458 -0.34411,0.54777 -0.84704,1.25204 -1.50879,2.11282 -0.66177,0.8608 -1.29707,1.72161 -1.90589,2.58244 -0.60883,0.86081 -1.27059,1.74771 -1.98528,2.66068 -0.71472,0.91296 -1.32355,1.69547 -1.82649,2.34753 -0.50294,0.6521 -1.57498,1.89113 -3.21613,3.71709 -1.64114,1.82596 -3.57353,3.91276 -5.79717,6.26041 -2.22352,2.34766 -4.18239,4.35623 -5.87661,6.0257 -1.69408,1.66947 -2.81908,2.72588 -3.375,3.16922 -0.5559,0.44345 -1.85294,1.56513 -3.89113,3.36502 -2.03818,1.79989 -3.28227,2.89548 -3.73226,3.28678 -0.45001,0.39127 -1.56177,1.3564 -3.33528,2.89539 -1.77351,1.53899 -2.93822,2.5302 -3.49415,2.97363 -0.55587,0.44343 -1.19116,0.96512 -1.90587,1.56509 -0.7147,0.59994 -1.70731,1.42164 -2.97782,2.46508 -1.27059,1.04339 -2.23679,1.81287 -2.89859,2.30841 -0.66176,0.4956 -1.29705,0.93904 -1.90587,1.33032 -0.60883,0.39127 -1.72059,1.06946 -3.33528,2.03458 -1.61465,0.96513 -2.67345,1.61725 -3.17641,1.95636 -0.50293,0.3391 -1.07204,0.69123 -1.70734,1.05641 -0.63528,0.36522 -1.29704,0.78258 -1.98528,1.25208 -0.68824,0.46952 -1.19118,0.80862 -1.50881,1.01729 -0.31766,0.2087 -1.0059,0.5739 -2.06472,1.09559 -1.05882,0.5217 -2.32938,1.12167 -3.81169,1.79988 -1.48239,0.67818 -2.51471,1.12162 -3.09697,1.33032 l -0.87353,0.31303 -0.95292,-0.23477 c -0.63528,-0.1565 -1.32352,-0.41735 -2.06472,-0.78256 -0.74118,-0.36518 -1.98527,-0.99121 -3.73226,-1.8781 -1.74704,-0.88688 -2.75289,-1.43467 -3.01754,-1.64337 -0.2647,-0.20869 -0.9397,-0.66516 -2.025,-1.36942 -1.08529,-0.70431 -1.90586,-1.22602 -2.46169,-1.56513 -0.55587,-0.3391 -1.64115,-0.99121 -3.25584,-1.95634 -1.61465,-0.96517 -2.72641,-1.64336 -3.33528,-2.03458 -0.60882,-0.39127 -1.2441,-0.8347 -1.90585,-1.3303 -0.66177,-0.49561 -1.41621,-1.08253 -2.2633,-1.76075 -0.84706,-0.67822 -1.97205,-1.60423 -3.375,-2.77804 -1.40296,-1.17383 -2.62056,-2.19112 -3.65282,-3.05187 -1.03234,-0.8608 -2.54114,-2.16503 -4.52641,-3.91268 -1.98527,-1.74765 -3.25583,-2.84325 -3.81169,-3.28678 -0.55587,-0.44343 -1.77348,-1.48679 -3.65282,-3.1301 -1.87943,-1.64339 -2.925,-2.5694 -3.13669,-2.77804 -0.21176,-0.2087 -1.15148,-1.13471 -2.81915,-2.77804 -1.66761,-1.64326 -2.83232,-2.81709 -3.49415,-3.52149 -0.66176,-0.70429 -2.11767,-2.26937 -4.36774,-4.69526 -2.25006,-2.42589 -3.60006,-3.91273 -4.05,-4.46054 -0.45,-0.54777 -1.11176,-1.35636 -1.98528,-2.42577 -0.87352,-1.06947 -1.56176,-1.93029 -2.06472,-2.58244 -0.50293,-0.65214 -1.00587,-1.33033 -1.50881,-2.03458 -0.50296,-0.70427 -1.03237,-1.43462 -1.58824,-2.19105 -0.55587,-0.75646 -1.05881,-1.43465 -1.50881,-2.03458 -0.45,-0.59994 -0.83382,-1.13467 -1.15147,-1.60417 -0.31765,-0.46955 -0.75441,-1.08255 -1.31028,-1.83902 -0.55587,-0.75646 -1.03234,-1.43465 -1.42941,-2.03458 -0.39704,-0.59994 -0.92644,-1.38245 -1.5882,-2.34753 -0.66175,-0.96517 -1.16468,-1.7216 -1.50879,-2.26929 -0.34411,-0.54778 -0.89999,-1.4086 -1.66764,-2.58244 -0.76765,-1.17382 -1.27058,-1.98247 -1.50881,-2.42597 -0.23824,-0.44347 -0.9,-1.56507 -1.98528,-3.36482 -1.08529,-1.79987 -1.80001,-2.9737 -2.14415,-3.52149 -0.34411,-0.54776 -1.20439,-2.04764 -2.58084,-4.49966 -1.37645,-2.45202 -2.40877,-4.30404 -3.09697,-5.55607 -0.68824,-1.25209 -1.29706,-2.42593 -1.82645,-3.52149 -0.52941,-1.09557 -1.2706,-2.73889 -2.22359,-4.92997 -0.95294,-2.19119 -1.42941,-3.31286 -1.42941,-3.36502 0,-0.0522 -0.47647,-1.25208 -1.42941,-3.59973 -0.95292,-2.34766 -1.69411,-4.19969 -2.22359,-5.55607 -0.52941,-1.35639 -1.2706,-3.41711 -2.22359,-6.18217 -0.95294,-2.76506 -1.9059,-5.71268 -2.85887,-8.84285 -0.95294,-3.13017 -2.01175,-6.93853 -3.17641,-11.42509 -1.1647,-4.48656 -1.98527,-7.82536 -2.46169,-10.01641 -0.47646,-2.19105 -1.13823,-5.37338 -1.98528,-9.54699 -0.84704,-4.17361 -1.34998,-6.91252 -1.50881,-8.21675 -0.15882,-1.30423 -0.50294,-5.29521 -1.03236,-11.97295 -0.52941,-6.67774 -0.87352,-11.71216 -1.03234,-15.10326 -0.15883,-3.3911 -0.34413,-6.99083 -0.55589,-10.79919 -0.21177,-3.80836 -0.50295,-10.04263 -0.87353,-18.70279 -0.37059,-8.66016 -0.55589,-14.79011 -0.55589,-18.38984 v -5.3996 l 0.51617,-0.27387 c 0.34411,-0.18259 1.28383,-0.40432 2.81915,-0.66518 1.53535,-0.26085 3.65295,-0.59995 6.35282,-1.01731 2.7,-0.41737 6.80295,-1.09557 12.30886,-2.03458 5.50591,-0.93906 9.44999,-1.61726 11.83225,-2.03458 2.38239,-0.41736 5.53239,-1.06949 9.44999,-1.95638 3.9176,-0.88689 7.30584,-1.72163 10.16471,-2.5042 2.85887,-0.78255 5.32063,-1.5129 7.38527,-2.19105 2.06465,-0.67821 3.67936,-1.1999 4.84415,-1.56509 1.16469,-0.36519 2.27645,-0.73038 3.33528,-1.09559 1.05882,-0.36519 3.17642,-1.1477 6.35282,-2.34753 3.17648,-1.1999 6.15436,-2.41285 8.93366,-3.63885 2.77943,-1.22599 4.26176,-1.85202 4.44697,-1.8781 0.18528,-0.02609 1.52204,-0.613 4.01028,-1.76073 2.48817,-1.14774 4.73817,-2.19111 6.74999,-3.1301 2.01169,-0.93906 3.99697,-1.87812 5.95584,-2.81715 1.95887,-0.93906 4.39415,-2.16505 7.30584,-3.67797 l 4.36754,-2.26929 h 1.03236 z"
         fill="#e5c601"
         fill-rule="evenodd"
         stroke="#ffffff"
         stroke-width="2"
         id="path82" />
      <g
         aria-label="MSOE"
         transform="scale(0.96351239,1.0378694)"
         id="text86"
         style="font-style:normal;font-variant:normal;font-weight:bold;font-stretch:normal;font-size:79.235px;font-family:Serif;-inkscape-font-specification:'Serif, Bold';font-variant-ligatures:normal;font-variant-caps:normal;font-variant-numeric:normal;font-variant-east-asian:normal;text-anchor:start;mix-blend-mode:normal;fill:#ffffff;fill-rule:nonzero;stroke:none;stroke-width:1.98088;stroke-linecap:butt;stroke-linejoin:miter;stroke-miterlimit:10;stroke-dasharray:none;stroke-dashoffset:0">
        <path
           d="m 171.16912,113.08458 14.23754,-34.587939 h 21.35631 v 1.431492 h -1.70232 q -2.32133,0 -3.71414,0.812468 -0.96722,0.541645 -1.54755,1.818381 -0.42558,0.928535 -0.42558,4.836121 v 34.587937 q 0,4.02365 0.42558,5.02956 0.42557,1.00592 1.741,1.7797 1.31542,0.73509 3.52069,0.73509 h 1.70232 v 1.43149 h -27.39179 v -1.43149 h 1.70232 q 2.32133,0 3.71414,-0.81247 0.96722,-0.54165 1.54756,-1.85707 0.42557,-0.92854 0.42557,-4.87481 V 83.100628 l -20.11826,47.858252 h -0.92853 L 145.2862,83.448828 v 36.947962 q 0,3.8689 0.19345,4.75874 0.50296,1.93445 2.16658,3.1725 1.70232,1.19936 5.30039,1.19936 v 1.43149 h -17.95168 v -1.43149 h 0.54164 q 1.74101,0.0387 3.24988,-0.54165 1.50887,-0.61902 2.28265,-1.62494 0.77378,-1.00591 1.19935,-2.82429 0.0774,-0.42558 0.0774,-3.94628 V 87.395103 q 0,-3.984964 -0.42558,-4.952188 -0.42557,-1.005913 -1.741,-1.741003 -1.31542,-0.773779 -3.5207,-0.773779 h -1.66362 v -1.431492 h 21.43369 z"
           style="font-style:normal;font-variant:normal;font-weight:bold;font-stretch:normal;font-size:79.235px;font-family:Serif;-inkscape-font-specification:'Serif, Bold';font-variant-ligatures:normal;font-variant-caps:normal;font-variant-numeric:normal;font-variant-east-asian:normal;stroke-width:1.98088"
           id="path134" />
        <path
           d="m 245.41324,77.297283 0.42558,17.487412 h -1.58625 q -1.12198,-6.577124 -5.53252,-10.562087 -4.37185,-4.023653 -9.47879,-4.023653 -3.94628,0 -6.26762,2.127893 -2.28265,2.089204 -2.28265,4.836121 0,1.741003 0.81247,3.095117 1.12198,1.818382 3.59808,3.598074 1.81838,1.276736 8.3955,4.526609 9.20797,4.526611 12.41916,8.550261 3.17249,4.02365 3.17249,9.20797 0,6.57713 -5.14563,11.33587 -5.10694,4.72005 -12.99949,4.72005 -2.47609,0 -4.68137,-0.50295 -2.20527,-0.50296 -5.53252,-1.89576 -1.85707,-0.77378 -3.05643,-0.77378 -1.00591,0 -2.12789,0.77378 -1.12198,0.77378 -1.81838,2.36003 h -1.43149 v -19.80875 h 1.43149 q 1.70231,8.35681 6.53844,12.76735 4.8748,4.37186 10.4847,4.37186 4.33317,0 6.88664,-2.36003 2.59216,-2.36003 2.59216,-5.49383 0,-1.85707 -1.00591,-3.59808 -0.96723,-1.741 -2.97905,-3.28856 -2.01183,-1.58625 -7.11877,-4.10103 -7.15746,-3.52069 -10.29127,-5.99679 -3.1338,-2.47609 -4.83612,-5.532521 -1.66362,-3.056428 -1.66362,-6.73188 0,-6.267612 4.60398,-10.678154 4.60399,-4.410542 11.60669,-4.410542 2.55348,0 4.95219,0.619023 1.81838,0.464268 4.41054,1.741004 2.63085,1.238047 3.67545,1.238047 1.00592,0 1.58625,-0.619024 0.58034,-0.619023 1.08329,-2.97905 z"
           style="font-style:normal;font-variant:normal;font-weight:bold;font-stretch:normal;font-size:79.235px;font-family:Serif;-inkscape-font-specification:'Serif, Bold';font-variant-ligatures:normal;font-variant-caps:normal;font-variant-numeric:normal;font-variant-east-asian:normal;stroke-width:1.98088"
           id="path136" />
        <path
           d="m 282.86416,77.76155 q 12.53522,-0.464267 20.35039,7.312215 7.85386,7.776482 7.85386,19.460545 0,9.98176 -5.84203,17.56479 -7.7378,10.05914 -21.85927,10.05914 -14.16016,0 -21.89795,-9.59487 -6.11286,-7.58304 -6.11286,-17.99037 0,-11.684064 7.93124,-19.460546 7.96993,-7.815171 19.57662,-7.350904 z m 0.46426,2.476094 q -7.19614,0 -10.94897,7.350904 -3.05643,6.035478 -3.05643,17.332652 0,13.42507 4.72005,19.84744 3.28856,4.48792 9.20798,4.48792 3.98496,0 6.6545,-1.93445 3.40463,-2.47609 5.30039,-7.89254 1.89576,-5.45515 1.89576,-14.19885 0,-10.407336 -1.93445,-15.552968 -1.93445,-5.184322 -4.95219,-7.312215 -2.97905,-2.127893 -6.88664,-2.127893 z"
           style="font-style:normal;font-variant:normal;font-weight:bold;font-stretch:normal;font-size:79.235px;font-family:Serif;-inkscape-font-specification:'Serif, Bold';font-variant-ligatures:normal;font-variant-caps:normal;font-variant-numeric:normal;font-variant-east-asian:normal;stroke-width:1.98088"
           id="path138" />
        <path
           d="m 335.48116,81.51438 v 21.35631 h 1.0446 q 4.99088,0 7.23484,-3.133807 2.24396,-3.133806 2.86298,-9.246663 h 1.47018 v 27.46917 h -1.47018 q -0.46427,-4.48792 -1.97314,-7.35091 -1.47018,-2.86298 -3.44332,-3.83021 -1.97313,-1.00591 -5.72596,-1.00591 v 14.77919 q 0,4.33316 0.3482,5.30038 0.38689,0.96723 1.3928,1.58625 1.00591,0.61903 3.24987,0.61903 h 3.13381 q 7.3509,0 11.76145,-3.40463 4.44923,-3.40463 6.38368,-10.36865 h 1.43149 l -2.36003,16.67495 h -45.34347 v -1.43149 h 1.74101 q 2.28265,0 3.67545,-0.81247 1.00591,-0.54165 1.54756,-1.85707 0.42558,-0.92854 0.42558,-4.87481 V 87.472481 q 0,-3.559385 -0.19345,-4.371853 -0.38689,-1.354114 -1.43149,-2.089204 -1.47018,-1.083291 -4.02365,-1.083291 h -1.74101 v -1.431492 h 43.91198 v 15.514275 h -1.47018 q -1.12198,-5.687278 -3.1725,-8.163372 -2.01182,-2.476094 -5.72596,-3.636763 -2.16659,-0.696401 -8.12469,-0.696401 z"
           style="font-style:normal;font-variant:normal;font-weight:bold;font-stretch:normal;font-size:79.235px;font-family:Serif;-inkscape-font-specification:'Serif, Bold';font-variant-ligatures:normal;font-variant-caps:normal;font-variant-numeric:normal;font-variant-east-asian:normal;stroke-width:1.98088"
           id="path140" />
      </g>
      <text
         transform="matrix(0.5,0,0,0.5,68.5,195.50001)"
         font-size="40px"
         xml:space="preserve"
         fill="#ffffff"
         fill-rule="nonzero"
         stroke="none"
         stroke-width="1"
         stroke-linecap="butt"
         stroke-linejoin="miter"
         stroke-miterlimit="10"
         stroke-dasharray="none"
         stroke-dashoffset="0"
         font-family="Serif"
         font-weight="normal"
         text-anchor="start"
         style="mix-blend-mode:normal"
         id="text90"><tspan
           x="0"
           dy="0"
           id="tspan88"> </tspan></text>
      <g
         fill-rule="nonzero"
         stroke="none"
         stroke-width="1"
         id="g102">
        <path
           d="m 226.41538,289.3444 c -1.83815,-1.72519 -2.81202,-3.88655 -4.43885,-5.53262 -0.7058,-0.71406 -1.67544,-1.19579 -3.24491,-1.32889 -11.80474,-1.00035 -20.44789,-0.79589 -25.10803,-9.89551 3.3877,1.92245 16.49506,-0.29948 15.40074,-3.59848 -9.36917,1.47158 -22.1648,-4.72023 -25.05338,-12.04339 4.93116,1.90956 10.97699,2.62242 14.88272,-1.09147 30.2717,0 60.54369,0 90.81539,0 2.68886,3.88176 6.28455,5.77783 6.35882,9.77621 0.0453,2.43806 -1.21356,5.28351 -2.79662,6.473 -5.70313,4.28405 -14.91683,4.09101 -20.45786,2.54298 -2.74439,7.81899 6.62266,12.79882 5.07069,14.69818 0,0 -8.77567,-0.006 -13.61965,0 -2.46546,-2.41468 -3.15013,-6.6148 -6.23625,-8.07739 -4.77968,-2.26509 -18.68279,-2.46443 -20.03673,1.53934 -0.92375,2.73063 5.2008,4.8932 3.7083,6.53805 z"
           fill="#ffffff"
           id="path92" />
        <path
           d="m 189.52359,240.10338 c 5.44246,3.06069 11.09699,7.12291 16.69748,6.56294 -5.50027,-6.13486 -11.99312,-18.99333 -7.91441,-24.17971 2.38184,7.26471 8.91393,8.89427 15.22838,9.66739 -2.75013,-7.77042 -1.0104,-15.39545 5.25182,-19.22535 -1.74849,6.2122 2.02833,12.40941 9.93912,13.80216 -1.68691,-8.15173 5.75174,-17.62397 13.81134,-19.8264 -4.16565,8.18861 -1.99332,15.82023 5.41453,18.07962 0.71938,-11.75141 10.68325,-16.87663 19.69741,-18.32843 -3.22288,3.92943 -7.59471,12.48525 -2.06819,21.60436 1.18548,-7.30937 7.56242,-16.98755 19.51237,-13.13816 -5.9232,3.26393 -7.62763,10.16591 -5.4725,18.42915 1.96947,-3.29241 11.32717,-4.57154 16.2285,-0.68678 -7.77706,3.28671 -13.14962,14.64332 -7.74686,20.0917 -30.28769,-6e-4 -59.24198,-0.001 -89.52937,-0.002 -4.45244,-2.56995 -9.9502,-8.57981 -9.04963,-12.85068 z"
           fill="#ffffff"
           id="path94" />
        <path
           d="m 229.51146,249.36847 -5.25604,-3.692 -5.23069,3.72708 1.91182,-6.10458 -5.18601,-3.78824 6.4373,-0.0812 2.02592,-6.06831 2.06668,6.05482 6.43791,0.0378 -5.16005,3.823 z"
           fill="#e5c601"
           id="path96" />
        <path
           d="m 250.27995,249.36847 -5.25604,-3.692 -5.23069,3.72708 1.91182,-6.10458 -5.18601,-3.78824 6.4373,-0.0812 2.02592,-6.06831 2.06668,6.05482 6.43791,0.0378 -5.16005,3.823 z"
           fill="#e5c601"
           id="path98" />
        <path
           d="m 271.04844,249.36847 -5.25604,-3.692 -5.23069,3.72708 1.91182,-6.10458 -5.18601,-3.78824 6.4373,-0.0812 2.02592,-6.06831 2.06668,6.05482 6.43791,0.0378 -5.16005,3.823 z"
           fill="#e5c601"
           id="path100" />
      </g>
      <g
         fill-rule="nonzero"
         stroke="none"
         id="g116">
        <path
           d="m 47.12472,168.3573 c -1.16473,-0.8402 -1.55296,-2.10049 -0.93177,-3.18074 0.62119,-1.14027 1.94121,-1.86043 3.49418,-1.86043 h 65.84582 v -18.30425 c 0,-1.62038 1.70827,-2.94068 3.80478,-2.94068 h 240.86525 c 2.09651,0 3.80478,1.32031 3.80478,2.94069 v 18.18422 h 66.38936 c 1.55296,0 2.87299,0.72016 3.49418,1.86043 0.46589,1.08026 0.1553,2.34054 -0.93178,3.18074 l -26.94398,20.16468 27.17693,24.60571 c 0.93178,0.8402 1.16473,2.04048 0.54353,3.12072 -0.54353,1.02024 -1.9412,1.68038 -3.41653,1.68038 h -90.22741 c -0.23294,0 -0.38825,0 -0.62119,-0.06 h -0.0777 l -0.62118,-0.12003 c -0.23294,-0.06 -0.38825,-0.12004 -0.62119,-0.24006 l -0.0777,-0.06 c -0.1553,0 -0.23294,-0.12003 -0.38824,-0.18005 h -0.0777 l -0.0777,-0.06 c -0.23294,-0.18005 -0.31059,-0.24005 -0.46589,-0.42009 -0.1553,-0.18005 -0.31059,-0.30007 -0.38824,-0.48011 v -0.06 c 0,-0.06 -0.0777,-0.12003 -0.0777,-0.18005 0,-0.12003 -0.0776,-0.18005 -0.0776,-0.24005 v -0.12003 c 0,-0.06 0,-0.12003 0,-0.18005 0,-0.06 0,-0.18005 0,-0.24005 V 201.06485 H 143.56402 v 14.16329 c 0,0.18005 0,0.30007 -0.0777,0.48011 v 0.06 c -0.0777,0.18005 -0.0777,0.30007 -0.1553,0.4201 v 0.06 c -0.0777,0.18005 -0.1553,0.36008 -0.31059,0.48011 l -0.0777,0.06 c -0.0776,0.12003 -0.23295,0.30006 -0.4659,0.42009 l -0.0777,0.06 c -0.0777,0.06 -0.1553,0.06 -0.23295,0.12003 -0.0776,0 -0.1553,0.06 -0.23294,0.12003 l -0.0777,0.06 h -0.0777 c -0.0777,0 -0.1553,0.06 -0.23294,0.06 -0.0777,0.06 -0.23294,0.12003 -0.31059,0.12003 l -0.69883,0.12003 c -0.1553,0.06 -0.38825,0.06 -0.62119,0.06 h -90.1495 c -1.47532,0 -2.79535,-0.66015 -3.41654,-1.68038 -0.62119,-1.08026 -0.38825,-2.28053 0.54353,-3.12072 l 27.17693,-24.60572 z m 374.03221,0.8402 h -57.1492 v 28.92671 c 0,0.54013 -0.23294,1.08026 -0.62118,1.56037 -0.1553,0.36008 -0.38825,0.84019 -0.85413,1.20027 l -13.43318,11.10257 h 73.30007 l -24.14864,-21.84507 c -1.32003,-1.14027 -1.16473,-2.88067 0.23294,-3.96092 z m -293.20026,31.80738 8.07543,6.60154 v -6.60153 z m 228.51917,-5.82134 V 147.95259 H 123.06483 v 47.23096 z m -12.42375,5.82134 v 6.60154 l 7.99778,-6.60153 z M 115.53292,198.12421 V 169.1975 H 59.0049 l 22.75099,17.10397 c 1.39768,1.02024 1.55296,2.82065 0.23294,3.96092 l -24.14864,21.84507 h 73.14476 l -14.59788,-12.00278 v -0.06 c -0.0776,-0.12003 -0.1553,-0.18004 -0.23295,-0.30006 -0.0777,-0.06 -0.1553,-0.12004 -0.1553,-0.18005 0,-0.06 -0.0776,-0.12003 -0.0776,-0.18005 -0.0777,-0.06 -0.1553,-0.18004 -0.1553,-0.24005 v -0.06 c -0.0777,-0.12003 -0.1553,-0.18005 -0.1553,-0.30007 0,-0.06 0,-0.06 0,-0.12003 v -0.06 c -0.0776,-0.18005 -0.0776,-0.36008 -0.0776,-0.48011 z"
           fill="#ffffff"
           stroke-width="1"
           id="path104" />
        <path
           d="m 352.08629,201.92479 -8.07059,6.66163 v -6.66163 z"
           data-paper-data="{&quot;noHover&quot;:false,&quot;origItem&quot;:[&quot;Path&quot;,{&quot;applyMatrix&quot;:true,&quot;segments&quot;:[[701.32351,398.21663],[701.32351,412.11518],[718.33515,398.21663]],&quot;closed&quot;:true,&quot;fillColor&quot;:[0,0,0,1]}]}"
           fill="#000000"
           stroke-width="0.5"
           id="path106" />
        <path
           d="m 398.52807,187.116 c -1.39767,1.08026 -1.55045,2.83437 -0.23044,3.97463 L 422.44,212.96115 h -73.38148 l 13.43082,-11.10726 c 0.46589,-0.36008 0.69828,-0.84154 0.85356,-1.20163 0.38825,-0.48011 0.62034,-1.02257 0.62034,-1.56268 l 0.0108,-28.97526 57.22323,0.009 z"
           data-paper-data="{&quot;noHover&quot;:false,&quot;origItem&quot;:[&quot;Path&quot;,{&quot;applyMatrix&quot;:true,&quot;segments&quot;:[[865.32895,331.25092],[743.77003,331.25092],[[743.77003,392.15182],[0,0],[0,1.13715]],[[742.44874,395.43693],[0.82581,-1.0108],[-0.33032,0.7581]],[[740.63196,397.96393],[0.99097,-0.7581],[0,0]],[712.05901,421.33876],[867.97154,421.33876],[[816.60629,375.34721],[0,0],[-2.80775,-2.40066]],[[817.10177,367.00809],[-2.97291,2.27431],[0,0]]],&quot;closed&quot;:true,&quot;fillColor&quot;:[0,0,0,1]}]}"
           fill="#000000"
           stroke-width="0.5"
           id="path108" />
        <path
           d="m 136.06864,201.92497 v 6.66129 l -8.14853,-6.66129 z"
           data-paper-data="{&quot;noHover&quot;:false,&quot;origItem&quot;:[&quot;Path&quot;,{&quot;applyMatrix&quot;:true,&quot;segments&quot;:[[241.67884,398.21663],[258.85565,412.11518],[258.85565,398.21663]],&quot;closed&quot;:true,&quot;fillColor&quot;:[0,0,0,1]}]}"
           fill="#000000"
           stroke-width="0.5"
           id="path110" />
        <path
           d="m 115.65465,198.62086 -5e-5,0.0601 c 0,0.06 -8e-5,0.0602 -8e-5,0.12025 0,0.12003 0.0775,0.18046 0.15513,0.30049 l -5e-5,0.0601 c 0,0.06 0.0775,0.18035 0.15517,0.24037 0,0.06 0.0775,0.12028 0.0775,0.1803 0,0.06 0.0776,0.12023 0.15522,0.18025 0.0777,0.12003 0.15515,0.18038 0.2328,0.30041 l -5e-5,0.0601 14.59529,12.00803 H 57.79949 L 81.9418,190.26092 c 1.32002,-1.14027 1.16721,-2.9545 -0.23047,-3.97474 l -22.74679,-17.1131 56.60149,-0.009 0.0112,28.97608 c 0,0.12003 -3e-4,0.30091 0.0773,0.48095 z"
           data-paper-data="{&quot;noHover&quot;:false,&quot;origItem&quot;:[&quot;Path&quot;,{&quot;applyMatrix&quot;:true,&quot;segments&quot;:[[[215.25299,392.15182],[0,0.2527],[0,0]],[215.25299,331.25092],[95.01536,331.25092],[[143.40771,367.26079],[0,0],[2.97291,2.14796]],[[143.90319,375.59991],[2.80775,-2.40066],[0,0]],[92.53794,421.59146],[248.12014,421.59146],[217.06977,396.32138],[[217.06977,396.19503],[0,0],[-0.16516,-0.2527]],[[216.57428,395.56328],[0.16516,0.2527],[-0.16516,-0.12635]],[[216.24396,395.18422],[0,0.12635],[0,-0.12635]],[[216.0788,394.80517],[0,0.12635],[-0.16516,-0.12635]],[[215.74848,394.29977],[0,0.12635],[0,0]],[[215.74848,394.17342],[0,0],[-0.16516,-0.2527]],[[215.41815,393.54167],[0,0.2527],[0,-0.12635]],[[215.41815,393.28897],[0,0.12635],[0,0]],[[215.41815,393.16262],[0,0],[-0.16516,-0.37905]]],&quot;closed&quot;:true,&quot;fillColor&quot;:[0,0,0,1]}]}"
           fill="#000000"
           stroke-width="0.5"
           id="path112" />
        <path
           d="m 123.01872,195.19286 v -47.24962 h 233.50321 v 47.24962 z"
           data-paper-data="{&quot;noHover&quot;:false,&quot;origItem&quot;:[&quot;Path&quot;,{&quot;applyMatrix&quot;:true,&quot;segments&quot;:[[727.74936,385.96065],[727.74936,286.52288],[231.27366,286.52288],[231.27366,385.96065]],&quot;closed&quot;:true,&quot;fillColor&quot;:[0,0,0,1]}]}"
           fill="#000000"
           stroke-width="0.5"
           id="path114" />
      </g>
      <g
         aria-label="LIBERTARIANS"
         transform="scale(0.91962494,1.0873998)"
         id="text120"
         style="font-style:normal;font-variant:normal;font-weight:bold;font-stretch:normal;font-size:32.8199px;font-family:Serif;-inkscape-font-specification:'Serif, Bold';font-variant-ligatures:normal;font-variant-caps:normal;font-variant-numeric:normal;font-variant-east-asian:normal;text-anchor:start;mix-blend-mode:normal;fill:#ffffff;fill-rule:nonzero;stroke:none;stroke-width:0.820497;stroke-linecap:butt;stroke-linejoin:miter;stroke-miterlimit:10;stroke-dasharray:none;stroke-dashoffset:0">
        <path
           d="m 158.91056,160.56769 -0.8173,7.62807 h -19.29451 v -0.59294 h 0.72114 q 0.9455,0 1.52241,-0.33653 0.41666,-0.22436 0.64101,-0.76922 0.17628,-0.38461 0.17628,-2.01919 v -14.29461 q 0,-1.66664 -0.17628,-2.08329 -0.17628,-0.41666 -0.72114,-0.72114 -0.52883,-0.32051 -1.44228,-0.32051 h -0.72114 v -0.59294 h 11.58632 v 0.59294 h -0.94549 q -0.9455,0 -1.52241,0.33653 -0.41666,0.22436 -0.65704,0.76922 -0.17628,0.38461 -0.17628,2.01919 v 13.8459 q 0,1.66663 0.19231,2.13137 0.1923,0.44871 0.75319,0.67306 0.40063,0.14423 1.93907,0.14423 h 1.81086 q 1.73074,0 2.88456,-0.60896 1.15383,-0.60897 1.98714,-1.92305 0.84935,-1.31407 1.60254,-3.87813 z"
           style="font-style:normal;font-variant:normal;font-weight:bold;font-stretch:normal;font-size:32.8199px;font-family:Serif;-inkscape-font-specification:'Serif, Bold';font-variant-ligatures:normal;font-variant-caps:normal;font-variant-numeric:normal;font-variant-east-asian:normal;stroke-width:0.820497"
           id="path143" />
        <path
           d="m 172.09941,167.60282 v 0.59294 h -11.36196 v -0.59294 h 0.72114 q 0.94549,0 1.5224,-0.33653 0.41666,-0.22436 0.64102,-0.76922 0.17628,-0.38461 0.17628,-2.01919 v -14.29461 q 0,-1.66664 -0.17628,-2.08329 -0.17628,-0.41666 -0.72114,-0.72114 -0.52884,-0.32051 -1.44228,-0.32051 h -0.72114 v -0.59294 h 11.36196 v 0.59294 h -0.72114 q -0.94549,0 -1.52241,0.33653 -0.41665,0.22436 -0.65703,0.76922 -0.17628,0.38461 -0.17628,2.01919 v 14.29461 q 0,1.66663 0.17628,2.08329 0.1923,0.41666 0.72114,0.73717 0.54486,0.30448 1.4583,0.30448 z"
           style="font-style:normal;font-variant:normal;font-weight:bold;font-stretch:normal;font-size:32.8199px;font-family:Serif;-inkscape-font-specification:'Serif, Bold';font-variant-ligatures:normal;font-variant-caps:normal;font-variant-numeric:normal;font-variant-east-asian:normal;stroke-width:0.820497"
           id="path145" />
        <path
           d="m 187.45169,156.67353 q 3.09289,0.72114 4.34287,1.74677 1.79484,1.4583 1.79484,3.78198 0,2.45187 -1.97112,4.05441 -2.41983,1.93907 -7.03513,1.93907 h -11.04146 v -0.59294 q 1.50639,0 2.03522,-0.27243 0.54486,-0.28846 0.75319,-0.73717 0.22436,-0.44871 0.22436,-2.2115 v -14.1023 q 0,-1.76279 -0.22436,-2.21149 -0.20833,-0.46474 -0.75319,-0.73717 -0.54486,-0.27243 -2.03522,-0.27243 v -0.59294 h 10.41648 q 3.7339,0 5.28836,0.67307 1.55446,0.65703 2.45188,1.98714 0.89742,1.31408 0.89742,2.80443 0,1.57049 -1.1378,2.80444 -1.1378,1.21792 -4.00634,1.93906 z m -5.83322,-0.43268 q 2.27559,0 3.34929,-0.51281 1.08973,-0.51281 1.66664,-1.44228 0.57691,-0.92947 0.57691,-2.37175 0,-1.44228 -0.57691,-2.35573 -0.56089,-0.92947 -1.61856,-1.41023 -1.05767,-0.48076 -3.39737,-0.46473 z m 0,1.24998 v 6.97102 l -0.016,0.80127 q 0,0.86537 0.43268,1.31408 0.44871,0.43268 1.31408,0.43268 1.28203,0 2.35573,-0.56089 1.08972,-0.57691 1.66663,-1.65061 0.57692,-1.08972 0.57692,-2.41982 0,-1.52241 -0.70512,-2.72431 -0.70511,-1.21793 -1.93907,-1.69869 -1.23395,-0.48076 -3.68582,-0.46473 z"
           style="font-style:normal;font-variant:normal;font-weight:bold;font-stretch:normal;font-size:32.8199px;font-family:Serif;-inkscape-font-specification:'Serif, Bold';font-variant-ligatures:normal;font-variant-caps:normal;font-variant-numeric:normal;font-variant-east-asian:normal;stroke-width:0.820497"
           id="path147" />
        <path
           d="m 203.68536,147.71537 v 8.84599 h 0.43269 q 2.06727,0 2.99674,-1.29806 0.92947,-1.29805 1.18587,-3.83005 h 0.60896 v 11.37799 h -0.60896 q -0.1923,-1.85894 -0.81729,-3.04481 -0.60896,-1.18588 -1.42626,-1.58651 -0.81729,-0.41666 -2.37175,-0.41666 v 6.12168 q 0,1.79484 0.14423,2.19547 0.16025,0.40063 0.57691,0.65704 0.41666,0.2564 1.34613,0.2564 h 1.29805 q 3.04482,0 4.87171,-1.41023 1.84291,-1.41023 2.64418,-4.29479 h 0.59294 l -0.97755,6.90693 h -18.7817 v -0.59294 h 0.72114 q 0.9455,0 1.52241,-0.33653 0.41666,-0.22436 0.64101,-0.76922 0.17628,-0.38461 0.17628,-2.01919 v -14.29461 q 0,-1.47433 -0.0801,-1.81086 -0.16025,-0.56089 -0.59293,-0.86537 -0.60897,-0.44871 -1.66664,-0.44871 h -0.72114 v -0.59294 h 18.18876 v 6.42616 h -0.60896 q -0.46473,-2.35572 -1.31408,-3.38134 -0.83332,-1.02563 -2.37175,-1.50639 -0.89742,-0.28845 -3.36532,-0.28845 z"
           style="font-style:normal;font-variant:normal;font-weight:bold;font-stretch:normal;font-size:32.8199px;font-family:Serif;-inkscape-font-specification:'Serif, Bold';font-variant-ligatures:normal;font-variant-caps:normal;font-variant-numeric:normal;font-variant-east-asian:normal;stroke-width:0.820497"
           id="path149" />
        <path
           d="m 225.35162,158.29209 v 6.08963 q 0,1.76279 0.20833,2.22753 0.22436,0.44871 0.76922,0.72114 0.54486,0.27243 2.03522,0.27243 v 0.59294 H 217.2428 v -0.59294 q 1.50638,0 2.03522,-0.27243 0.54486,-0.28846 0.75319,-0.73717 0.22435,-0.44871 0.22435,-2.2115 v -14.1023 q 0,-1.76279 -0.22435,-2.21149 -0.20833,-0.46474 -0.75319,-0.73717 -0.54487,-0.27243 -2.03522,-0.27243 v -0.59294 h 10.09596 q 3.94224,0 5.76913,0.54486 1.82689,0.54486 2.98071,2.0192 1.15382,1.4583 1.15382,3.42942 0,2.4038 -1.73073,3.97428 -1.10575,0.99358 -3.09289,1.49036 l 5.22426,7.35563 q 1.02562,1.42626 1.4583,1.77882 0.65704,0.49678 1.52241,0.54486 v 0.59294 h -6.84282 l -7.00307,-9.90367 z m 0,-10.65685 v 9.51905 h 0.91345 q 2.22752,0 3.33327,-0.40063 1.10575,-0.41666 1.73073,-1.47433 0.64102,-1.0737 0.64102,-2.78841 0,-2.48393 -1.16985,-3.6698 -1.15383,-1.18588 -3.73391,-1.18588 z"
           style="font-style:normal;font-variant:normal;font-weight:bold;font-stretch:normal;font-size:32.8199px;font-family:Serif;-inkscape-font-specification:'Serif, Bold';font-variant-ligatures:normal;font-variant-caps:normal;font-variant-numeric:normal;font-variant-east-asian:normal;stroke-width:0.820497"
           id="path151" />
        <path
           d="m 259.88624,146.46539 v 5.8813 h -0.57691 q -0.51282,-2.03522 -1.1378,-2.91661 -0.62499,-0.89742 -1.71472,-1.42626 -0.60896,-0.28845 -2.13137,-0.28845 h -1.61856 v 16.76251 q 0,1.66663 0.17628,2.08329 0.19231,0.41666 0.72114,0.73717 0.54487,0.30448 1.47433,0.30448 h 0.72115 v 0.59294 h -11.378 v -0.59294 h 0.72114 q 0.9455,0 1.52241,-0.33653 0.41666,-0.22436 0.65704,-0.76922 0.17628,-0.38461 0.17628,-2.01919 v -16.76251 h -1.57049 q -2.19547,0 -3.18904,0.92947 -1.3942,1.29805 -1.76279,3.70185 h -0.60896 v -5.8813 z"
           style="font-style:normal;font-variant:normal;font-weight:bold;font-stretch:normal;font-size:32.8199px;font-family:Serif;-inkscape-font-specification:'Serif, Bold';font-variant-ligatures:normal;font-variant-caps:normal;font-variant-numeric:normal;font-variant-east-asian:normal;stroke-width:0.820497"
           id="path153" />
        <path
           d="m 272.28985,162.00997 h -7.67614 l -0.91344,2.11535 q -0.44871,1.05767 -0.44871,1.74676 0,0.91344 0.73717,1.34613 0.43268,0.2564 2.13137,0.38461 v 0.59294 h -7.22743 v -0.59294 q 1.16985,-0.17628 1.92304,-0.96152 0.75319,-0.80127 1.85894,-3.2852 l 7.77229,-17.33942 h 0.30448 l 7.83639,17.82018 q 1.12178,2.53201 1.84292,3.18905 0.54486,0.49678 1.53843,0.57691 v 0.59294 h -10.51263 v -0.59294 h 0.43269 q 1.266,0 1.77881,-0.35256 0.35256,-0.25641 0.35256,-0.73717 0,-0.28845 -0.0962,-0.59293 -0.0321,-0.14423 -0.48076,-1.2019 z m -0.54486,-1.18587 -3.23712,-7.48384 -3.33327,7.48384 z"
           style="font-style:normal;font-variant:normal;font-weight:bold;font-stretch:normal;font-size:32.8199px;font-family:Serif;-inkscape-font-specification:'Serif, Bold';font-variant-ligatures:normal;font-variant-caps:normal;font-variant-numeric:normal;font-variant-east-asian:normal;stroke-width:0.820497"
           id="path155" />
        <path
           d="m 291.05552,158.29209 v 6.08963 q 0,1.76279 0.20833,2.22753 0.22436,0.44871 0.76922,0.72114 0.54486,0.27243 2.03522,0.27243 v 0.59294 H 282.9467 v -0.59294 q 1.50638,0 2.03522,-0.27243 0.54486,-0.28846 0.75319,-0.73717 0.22436,-0.44871 0.22436,-2.2115 v -14.1023 q 0,-1.76279 -0.22436,-2.21149 -0.20833,-0.46474 -0.75319,-0.73717 -0.54486,-0.27243 -2.03522,-0.27243 v -0.59294 h 10.09597 q 3.94223,0 5.76912,0.54486 1.82689,0.54486 2.98071,2.0192 1.15383,1.4583 1.15383,3.42942 0,2.4038 -1.73074,3.97428 -1.10575,0.99358 -3.09289,1.49036 l 5.22426,7.35563 q 1.02562,1.42626 1.45831,1.77882 0.65704,0.49678 1.52241,0.54486 v 0.59294 h -6.84283 l -7.00307,-9.90367 z m 0,-10.65685 v 9.51905 h 0.91345 q 2.22752,0 3.33327,-0.40063 1.10575,-0.41666 1.73074,-1.47433 0.64101,-1.0737 0.64101,-2.78841 0,-2.48393 -1.16985,-3.6698 -1.15382,-1.18588 -3.7339,-1.18588 z"
           style="font-style:normal;font-variant:normal;font-weight:bold;font-stretch:normal;font-size:32.8199px;font-family:Serif;-inkscape-font-specification:'Serif, Bold';font-variant-ligatures:normal;font-variant-caps:normal;font-variant-numeric:normal;font-variant-east-asian:normal;stroke-width:0.820497"
           id="path157" />
        <path
           d="m 318.05822,167.60282 v 0.59294 h -11.36197 v -0.59294 h 0.72114 q 0.9455,0 1.52241,-0.33653 0.41666,-0.22436 0.64102,-0.76922 0.17627,-0.38461 0.17627,-2.01919 v -14.29461 q 0,-1.66664 -0.17627,-2.08329 -0.17628,-0.41666 -0.72114,-0.72114 -0.52884,-0.32051 -1.44229,-0.32051 h -0.72114 v -0.59294 h 11.36197 v 0.59294 h -0.72114 q -0.94549,0 -1.52241,0.33653 -0.41666,0.22436 -0.65704,0.76922 -0.17627,0.38461 -0.17627,2.01919 v 14.29461 q 0,1.66663 0.17627,2.08329 0.19231,0.41666 0.72115,0.73717 0.54486,0.30448 1.4583,0.30448 z"
           style="font-style:normal;font-variant:normal;font-weight:bold;font-stretch:normal;font-size:32.8199px;font-family:Serif;-inkscape-font-specification:'Serif, Bold';font-variant-ligatures:normal;font-variant-caps:normal;font-variant-numeric:normal;font-variant-east-asian:normal;stroke-width:0.820497"
           id="path159" />
        <path
           d="m 332.46501,162.00997 h -7.67614 l -0.91345,2.11535 q -0.4487,1.05767 -0.4487,1.74676 0,0.91344 0.73716,1.34613 0.43269,0.2564 2.13137,0.38461 v 0.59294 h -7.22743 v -0.59294 q 1.16985,-0.17628 1.92304,-0.96152 0.75319,-0.80127 1.85894,-3.2852 l 7.77229,-17.33942 h 0.30449 l 7.83639,17.82018 q 1.12177,2.53201 1.84291,3.18905 0.54486,0.49678 1.53843,0.57691 v 0.59294 h -10.51262 v -0.59294 h 0.43268 q 1.26601,0 1.77882,-0.35256 0.35255,-0.25641 0.35255,-0.73717 0,-0.28845 -0.0962,-0.59293 -0.032,-0.14423 -0.48076,-1.2019 z m -0.54486,-1.18587 -3.23712,-7.48384 -3.33327,7.48384 z"
           style="font-style:normal;font-variant:normal;font-weight:bold;font-stretch:normal;font-size:32.8199px;font-family:Serif;-inkscape-font-specification:'Serif, Bold';font-variant-ligatures:normal;font-variant-caps:normal;font-variant-numeric:normal;font-variant-east-asian:normal;stroke-width:0.820497"
           id="path161" />
        <path
           d="m 350.68583,146.46539 10.72096,13.47731 v -9.34277 q 0,-1.95509 -0.56089,-2.64418 -0.76922,-0.92947 -2.58008,-0.89742 v -0.59294 h 7.17935 v 0.59294 q -1.37818,0.17628 -1.85894,0.46473 -0.46473,0.27243 -0.73716,0.91345 -0.25641,0.62499 -0.25641,2.16342 v 18.09261 h -0.54486 l -14.69524,-18.09261 v 13.81384 q 0,1.87497 0.84935,2.53201 0.86536,0.65704 1.97111,0.65704 h 0.51281 v 0.59294 h -7.70819 v -0.59294 q 1.79484,-0.016 2.49996,-0.73717 0.70511,-0.72114 0.70511,-2.45188 v -15.33625 l -0.46473,-0.57691 q -0.68909,-0.86537 -1.21793,-1.1378 -0.52883,-0.27243 -1.52241,-0.30448 v -0.59294 z"
           style="font-style:normal;font-variant:normal;font-weight:bold;font-stretch:normal;font-size:32.8199px;font-family:Serif;-inkscape-font-specification:'Serif, Bold';font-variant-ligatures:normal;font-variant-caps:normal;font-variant-numeric:normal;font-variant-east-asian:normal;stroke-width:0.820497"
           id="path163" />
        <path
           d="m 381.63077,145.96861 0.17627,7.24345 H 381.15 q -0.46473,-2.72431 -2.29162,-4.37492 -1.81086,-1.66663 -3.92621,-1.66663 -1.63458,0 -2.5961,0.88139 -0.9455,0.86537 -0.9455,2.00317 0,0.72114 0.33653,1.28203 0.46474,0.75319 1.49036,1.49035 0.75319,0.52884 3.4775,1.87497 3.81403,1.87496 5.14413,3.5416 1.31408,1.66663 1.31408,3.81403 0,2.72431 -2.13137,4.69542 -2.11534,1.9551 -5.38451,1.9551 -1.02562,0 -1.93907,-0.20833 -0.91344,-0.20833 -2.29162,-0.78525 -0.76922,-0.3205 -1.26601,-0.3205 -0.41665,0 -0.88139,0.3205 -0.46473,0.32051 -0.75319,0.97755 h -0.59294 v -8.20497 h 0.59294 q 0.70511,3.46147 2.70828,5.28836 2.0192,1.81086 4.34287,1.81086 1.79484,0 2.85251,-0.97754 1.0737,-0.97755 1.0737,-2.2756 0,-0.76922 -0.41666,-1.49036 -0.40063,-0.72114 -1.23395,-1.36215 -0.83332,-0.65704 -2.94866,-1.69869 -2.96469,-1.45831 -4.26274,-2.48393 -1.29806,-1.02562 -2.00317,-2.29162 -0.68909,-1.266 -0.68909,-2.78841 0,-2.59611 1.90701,-4.423 1.90702,-1.82688 4.80761,-1.82688 1.05767,0 2.05124,0.2564 0.75319,0.19231 1.82689,0.72114 1.08972,0.51281 1.52241,0.51281 0.41666,0 0.65704,-0.2564 0.24038,-0.25641 0.4487,-1.23395 z"
           style="font-style:normal;font-variant:normal;font-weight:bold;font-stretch:normal;font-size:32.8199px;font-family:Serif;-inkscape-font-specification:'Serif, Bold';font-variant-ligatures:normal;font-variant-caps:normal;font-variant-numeric:normal;font-variant-east-asian:normal;stroke-width:0.820497"
           id="path165" />
      </g>
    </g>
  </g>
</svg>
